{
  "accessors": [
    {
      "bufferView": 2,
      "componentType": 5126,
      "count": 65532,
      "max": [
        333.5076599121094,
        348.7931823730469,
        126.96440887451172
      ],
      "min": [
        -333.5076599121094,
        -348.7931823730469,
        -126.96440887451172
      ],
      "type": "VEC3"
    },
    {
      "bufferView": 2,
      "byteOffset": 786384,
      "componentType": 5126,
      "count": 65532,
      "max": [
        0.9999163746833801,
        0.9999527931213379,
        0.9999988079071045
      ],
      "min": [
        -0.9999954104423523,
        -0.9999696612358093,
        -0.999999463558197
      ],
      "type": "VEC3"
    },
    {
      "bufferView": 1,
      "componentType": 5126,
      "count": 65532,
      "max": [
        0.9964824318885803,
        0.996483564376831
      ],
      "min": [
        0.0035175634548068047,
        0.0036172866821289063
      ],
      "type": "VEC2"
    },
    {
      "bufferView": 0,
      "componentType": 5125,
      "count": 175419,
      "type": "SCALAR"
    },
    {
      "bufferView": 2,
      "byteOffset": 1572768,
      "componentType": 5126,
      "count": 53848,
      "max": [
        331.91864013671875,
        137.36325073242188,
        114.05477905273438
      ],
      "min": [
        -170.85923767089844,
        -345.7905578613281,
        -104.11542510986328
      ],
      "type": "VEC3"
    },
    {
      "bufferView": 2,
      "byteOffset": 2218944,
      "componentType": 5126,
      "count": 53848,
      "max": [
        0.999988853931427,
        0.9999993443489075,
        0.9999494552612305
      ],
      "min": [
        -0.9999569058418274,
        -0.9998262524604797,
        -0.9999951124191284
      ],
      "type": "VEC3"
    },
    {
      "bufferView": 1,
      "byteOffset": 524256,
      "componentType": 5126,
      "count": 53848,
      "max": [
        0.9964553713798523,
        0.996483564376831
      ],
      "min": [
        0.0035175634548068047,
        0.0035164356231689453
      ],
      "type": "VEC2"
    },
    {
      "bufferView": 0,
      "byteOffset": 701676,
      "componentType": 5125,
      "count": 119580,
      "type": "SCALAR"
    }
  ],
  "asset": {
    "extras": {
      "author": "brandon.dmr123 (https://sketchfab.com/brandon.dmr123)",
      "license": "CC-BY-4.0 (http://creativecommons.org/licenses/by/4.0/)",
      "source": "https://sketchfab.com/3d-models/playera-calabaza-1-b4b8c445ca8d48eaae86429e0e6b37c2",
      "title": "PLAYERA CALABAZA 1"
    },
    "generator": "Sketchfab-12.68.0",
    "version": "2.0"
  },
  "bufferViews": [
    {
      "buffer": 0,
      "byteLength": 1179996,
      "name": "floatBufferViews",
      "target": 34963
    },
    {
      "buffer": 0,
      "byteLength": 955040,
      "byteOffset": 1179996,
      "byteStride": 8,
      "name": "floatBufferViews",
      "target": 34962
    },
    {
      "buffer": 0,
      "byteLength": 2865120,
      "byteOffset": 2135036,
      "byteStride": 12,
      "name": "floatBufferViews",
      "target": 34962
    }
  ],
  "buffers": [
    {
      "byteLength": 5000156,
      "uri": "scene.bin"
    }
  ],
  "images": [
    {
      "uri": "textures/material_baseColor.png"
    }
  ],
  "materials": [
    {
      "doubleSided": true,
      "name": "material",
      "pbrMetallicRoughness": {
        "baseColorTexture": {
          "index": 0
        },
        "metallicFactor": 0.0,
        "roughnessFactor": 0.9524317153998911
      }
    }
  ],
  "meshes": [
    {
      "name": "Conector_1_Mat_0",
      "primitives": [
        {
          "attributes": {
            "NORMAL": 1,
            "POSITION": 0,
            "TEXCOORD_0": 2
          },
          "indices": 3,
          "material": 0,
          "mode": 4
        }
      ]
    },
    {
      "name": "Conector_1_Mat_0",
      "primitives": [
        {
          "attributes": {
            "NORMAL": 5,
            "POSITION": 4,
            "TEXCOORD_0": 6
          },
          "indices": 7,
          "material": 0,
          "mode": 4
        }
      ]
    }
  ],
  "nodes": [
    {
      "children": [
        1
      ],
      "matrix": [
        -1.0,
        2.8327693431939995e-16,
        -2.8327693431939985e-16,
        0.0,
        -2.832769343193999e-16,
        -6.123234262925839e-17,
        1.0,
        0.0,
        2.832769343193999e-16,
        1.0,
        6.123234262925839e-17,
        0.0,
        0.43924015760421753,
        4.457686114866719e-16,
        -2.007563352584839,
        1.0
      ],
      "name": "Sketchfab_model"
    },
    {
      "children": [
        2
      ],
      "matrix": [
        1.0,
        0.0,
        0.0,
        0.0,
        0.0,
        0.0,
        1.0,
        0.0,
        0.0,
        -1.0,
        0.0,
        0.0,
        0.0,
        0.0,
        0.0,
        1.0
      ],
      "name": "MPC.fbx"
    },
    {
      "children": [
        3
      ],
      "name": "RootNode"
    },
    {
      "children": [
        4,
        5
      ],
      "matrix": [
        1.0,
        0.0,
        0.0,
        0.0,
        0.0,
        1.0,
        0.0,
        0.0,
        0.0,
        0.0,
        1.0,
        0.0,
        0.22079500555992126,
        1310.3125,
        -1.0042685270309448,
        1.0
      ],
      "name": "Conector_1"
    },
    {
      "mesh": 0,
      "name": "Conector_1_Mat_0"
    },
    {
      "mesh": 1,
      "name": "Conector_1_Mat_0"
    }
  ],
  "samplers": [
    {
      "magFilter": 9729,
      "minFilter": 9987,
      "wrapS": 10497,
      "wrapT": 10497
    }
  ],
  "scene": 0,
  "scenes": [
    {
      "name": "Sketchfab_Scene",
      "nodes": [
        0
      ]
    }
  ],
  "textures": [
    {
      "sampler": 0,
      "source": 0
    }
  ]
}
